<svg width="171" height="429" viewBox="0 0 171 429" fill="none" xmlns="http://www.w3.org/2000/svg">
<path d="M155.937 3.05176e-05L155.937 367.976L154.304 367.976L154.304 3.05889e-05L155.937 3.05176e-05Z" fill="black"/>
<path d="M155.321 317.036L155.321 318.668L103.436 318.668L103.436 317.036L155.321 317.036Z" fill="black"/>
<path d="M62.3092 183.149L62.3092 267.264L155.372 267.264L155.372 265.631L63.9417 265.631L63.9417 183.149L62.3092 183.149Z" fill="black"/>
<path d="M155.321 210.347L155.321 211.98L103.436 211.98L103.436 210.347L155.321 210.347Z" fill="black"/>
<path d="M63.0825 182.955L63.0825 184.587L11.1976 184.587L11.1976 182.955L63.0825 182.955Z" fill="black"/>
<path d="M155.321 98.4245L155.321 100.057L103.436 100.057L103.436 98.4245L155.321 98.4245Z" fill="black"/>
<path d="M155.321 42.4632L155.321 44.0957L103.436 44.0957L103.436 42.4632L155.321 42.4632Z" fill="black"/>
<path d="M103.5 302.156L103.5 333.156L91.4219 333.156L91.4219 302.156L103.5 302.156Z" fill="#006134" fill-opacity="0.3"/>
<path d="M103.5 196.042L103.5 227.042L91.4219 227.042L91.4219 196.042L103.5 196.042Z" fill="black"/>
<path d="M103.5 83.3974L103.5 114.398L91.4219 114.398L91.4219 83.3974L103.5 83.3974Z" fill="#006134" fill-opacity="0.5"/>
<path d="M103.5 29.5241L103.5 60.5242L91.4219 60.5242L91.4219 29.5241L103.5 29.5241Z" fill="#006134"/>
<path d="M12.0776 168.289L12.0776 199.289L-0.00043869 199.289L-0.000440045 168.289L12.0776 168.289Z" fill="black"/>
<path d="M165.26 344.952L165.26 428.211L145.669 428.211L145.669 344.952L165.26 344.952Z" fill="#006134"/>
<path d="M156.251 169.084C148.515 169.084 142.243 162.797 142.243 155.042C142.243 147.287 148.515 141 156.251 141C163.988 141 170.26 147.287 170.26 155.042C170.26 162.797 163.988 169.084 156.251 169.084Z" fill="#006134"/>
</svg>
