<svg width="171" height="429" viewBox="0 0 171 429" fill="none" xmlns="http://www.w3.org/2000/svg">
<path d="M14.3233 3.05176e-05L14.3234 367.976L15.9559 367.976L15.9559 3.04462e-05L14.3233 3.05176e-05Z" fill="black"/>
<path d="M14.9384 317.036L14.9384 318.668L66.8228 318.668L66.8228 317.036L14.9384 317.036Z" fill="black"/>
<path d="M107.949 183.149L107.949 267.264L14.8873 267.264L14.8873 265.631L106.317 265.631L106.317 183.149L107.949 183.149Z" fill="black"/>
<path d="M14.9384 210.347L14.9384 211.98L66.8228 211.98L66.8228 210.347L14.9384 210.347Z" fill="black"/>
<path d="M107.176 182.955L107.176 184.587L159.06 184.587L159.06 182.955L107.176 182.955Z" fill="black"/>
<path d="M14.9384 98.4245L14.9384 100.057L66.8228 100.057L66.8228 98.4245L14.9384 98.4245Z" fill="black"/>
<path d="M14.9384 42.4632L14.9384 44.0957L66.8228 44.0957L66.8228 42.4632L14.9384 42.4632Z" fill="black"/>
<path d="M66.7592 302.156L66.7592 333.156L78.8372 333.156L78.8372 302.156L66.7592 302.156Z" fill="#006134" fill-opacity="0.3"/>
<path d="M66.7592 196.042L66.7592 227.042L78.8372 227.042L78.8372 196.042L66.7592 196.042Z" fill="black"/>
<path d="M66.7592 83.3974L66.7592 114.398L78.8371 114.398L78.8371 83.3974L66.7592 83.3974Z" fill="#006134" fill-opacity="0.5"/>
<path d="M66.7592 29.5241L66.7592 60.5242L78.8371 60.5242L78.8371 29.5241L66.7592 29.5241Z" fill="#006134"/>
<path d="M158.18 168.289L158.18 199.289L170.258 199.289L170.258 168.289L158.18 168.289Z" fill="black"/>
<path d="M4.99994 344.952L4.99994 428.211L24.5902 428.211L24.5902 344.952L4.99994 344.952Z" fill="#006134"/>
<path d="M14.0082 169.084C21.7447 169.084 28.0164 162.797 28.0164 155.042C28.0164 147.287 21.7447 141 14.0082 141C6.27168 141 0 147.287 0 155.042C0 162.797 6.27168 169.084 14.0082 169.084Z" fill="#006134"/>
</svg>
