<?xml version="1.0" encoding="UTF-8"?><svg id="a" xmlns="http://www.w3.org/2000/svg" viewBox="0 0 798.1 242.94"><g><path d="M534.57,61.63c-1.28,0-2.4-.29-3.36-.87-.96-.58-1.71-1.37-2.24-2.36-.53-.99-.8-2.09-.8-3.29s.25-2.31,.76-3.3c.5-.99,1.23-1.77,2.17-2.35,.94-.58,2.06-.87,3.34-.87s2.41,.29,3.35,.87,1.65,1.36,2.16,2.35c.51,.98,.76,2.08,.76,3.3v.76h-10.59c.1,.74,.34,1.42,.72,2.03,.38,.62,.89,1.1,1.53,1.47,.64,.36,1.38,.54,2.22,.54,.89,0,1.64-.2,2.25-.59,.61-.39,1.08-.91,1.42-1.53h2.07c-.44,1.13-1.13,2.05-2.08,2.77-.95,.72-2.18,1.07-3.68,1.07Zm-4.42-7.53h8.59c-.17-1.08-.62-1.98-1.36-2.7s-1.72-1.09-2.93-1.09-2.19,.36-2.92,1.09-1.19,1.63-1.38,2.7Z"/><path d="M543.04,61.42v-17.69h1.9v17.69h-1.9Z"/><path d="M553.83,61.63c-1.28,0-2.4-.29-3.36-.87-.96-.58-1.71-1.37-2.24-2.36-.53-.99-.8-2.09-.8-3.29s.25-2.31,.76-3.3c.5-.99,1.23-1.77,2.17-2.35,.94-.58,2.06-.87,3.34-.87s2.41,.29,3.35,.87,1.65,1.36,2.16,2.35c.51,.98,.76,2.08,.76,3.3v.76h-10.59c.1,.74,.34,1.42,.72,2.03,.38,.62,.89,1.1,1.53,1.47,.64,.36,1.38,.54,2.22,.54,.89,0,1.64-.2,2.25-.59,.61-.39,1.08-.91,1.42-1.53h2.07c-.44,1.13-1.13,2.05-2.08,2.77-.95,.72-2.18,1.07-3.68,1.07Zm-4.42-7.53h8.59c-.17-1.08-.62-1.98-1.36-2.7s-1.72-1.09-2.93-1.09-2.19,.36-2.92,1.09-1.19,1.63-1.38,2.7Z"/><path d="M562.3,61.42v-17.69h1.9v11.32l6.09-6.27h2.65l-5.08,4.98,5.46,7.66h-2.33l-4.42-6.34-2.38,2.35v3.99h-1.9Z"/><path d="M576.35,61.42v-10.97h-2.58v-1.67h2.58v-4.52h1.9v4.52h2.91v1.67h-2.91v10.97h-1.9Z"/><path d="M583.23,61.42v-12.64h1.9v3.11c.07-.22,.2-.51,.39-.87,.19-.36,.48-.73,.85-1.1,.37-.37,.84-.69,1.4-.95,.57-.26,1.23-.39,2.01-.39h.13v1.9h-.23c-.94,0-1.76,.26-2.44,.77-.68,.51-1.2,1.18-1.57,2-.36,.82-.54,1.69-.54,2.62v5.56h-1.9Z"/><path d="M591.87,46.66v-2.48h2.05v2.48h-2.05Zm.08,14.76v-12.64h1.9v12.64h-1.9Z"/><path d="M602.56,61.63c-1.26,0-2.36-.29-3.29-.87-.93-.58-1.65-1.37-2.16-2.36-.51-.99-.77-2.09-.77-3.29s.26-2.31,.77-3.3c.51-.99,1.23-1.77,2.16-2.35s2.02-.87,3.29-.87c1.5,0,2.78,.39,3.83,1.16,1.05,.78,1.76,1.78,2.14,3.01h-2.05c-.29-.72-.75-1.31-1.38-1.77s-1.39-.68-2.29-.68-1.74,.22-2.43,.66-1.22,1.02-1.59,1.74c-.37,.72-.56,1.52-.56,2.4s.19,1.66,.56,2.39c.37,.73,.9,1.32,1.59,1.76s1.5,.66,2.43,.66,1.66-.23,2.29-.68c.63-.45,1.09-1.04,1.38-1.77h2.05c-.37,1.23-1.08,2.23-2.14,3.01s-2.33,1.16-3.83,1.16Z"/><path d="M610.8,46.66v-2.48h2.05v2.48h-2.05Zm.08,14.76v-12.64h1.9v12.64h-1.9Z"/><path d="M617.42,61.42v-10.97h-2.58v-1.67h2.58v-4.52h1.9v4.52h2.91v1.67h-2.91v10.97h-1.9Z"/><path d="M629.65,61.63c-1.28,0-2.4-.29-3.36-.87-.96-.58-1.71-1.37-2.24-2.36-.53-.99-.8-2.09-.8-3.29s.25-2.31,.76-3.3c.5-.99,1.23-1.77,2.17-2.35,.94-.58,2.06-.87,3.34-.87s2.41,.29,3.35,.87,1.65,1.36,2.16,2.35c.51,.98,.76,2.08,.76,3.3v.76h-10.59c.1,.74,.34,1.42,.72,2.03,.38,.62,.89,1.1,1.53,1.47,.64,.36,1.38,.54,2.22,.54,.89,0,1.64-.2,2.25-.59,.61-.39,1.08-.91,1.42-1.53h2.07c-.44,1.13-1.13,2.05-2.08,2.77-.95,.72-2.18,1.07-3.68,1.07Zm-4.42-7.53h8.59c-.17-1.08-.62-1.98-1.36-2.7s-1.72-1.09-2.93-1.09-2.19,.36-2.92,1.09-1.19,1.63-1.38,2.7Z"/><path d="M638.04,46.66v-2.48h2.05v2.48h-2.05Zm.08,14.76v-12.64h1.9v12.64h-1.9Z"/><path d="M644.67,61.42v-10.97h-2.58v-1.67h2.58v-4.52h1.9v4.52h2.91v1.67h-2.91v10.97h-1.9Z"/><path d="M662.41,61.63c-1.28,0-2.39-.29-3.34-.87-.94-.58-1.67-1.37-2.17-2.36-.51-.99-.76-2.09-.76-3.29s.25-2.31,.76-3.3c.5-.99,1.23-1.77,2.17-2.35,.94-.58,2.06-.87,3.34-.87s2.41,.29,3.35,.87,1.65,1.36,2.16,2.35c.51,.98,.76,2.08,.76,3.3s-.25,2.29-.76,3.29c-.51,.99-1.23,1.78-2.16,2.36-.94,.58-2.05,.87-3.35,.87Zm0-1.72c.94,0,1.74-.22,2.39-.66,.65-.44,1.14-1.02,1.48-1.76s.5-1.53,.5-2.39-.17-1.68-.5-2.4-.83-1.31-1.48-1.74c-.65-.44-1.45-.66-2.39-.66s-1.72,.22-2.38,.66c-.66,.44-1.15,1.02-1.49,1.74s-.51,1.52-.51,2.4,.17,1.66,.51,2.39,.83,1.32,1.49,1.76c.66,.44,1.45,.66,2.38,.66Z"/><path d="M671.18,66.43v-17.64h1.9v2.02c.47-.69,1.08-1.23,1.83-1.63,.75-.4,1.65-.59,2.69-.59,1.23,0,2.3,.29,3.22,.87s1.63,1.36,2.14,2.35c.5,.98,.76,2.08,.76,3.3s-.25,2.29-.76,3.29c-.51,.99-1.22,1.78-2.14,2.36-.92,.58-1.99,.87-3.22,.87-1.05,0-1.94-.21-2.69-.62-.75-.41-1.36-.96-1.83-1.63v7.05h-1.9Zm6.17-6.52c.94,0,1.75-.22,2.41-.66s1.17-1.02,1.53-1.76,.53-1.53,.53-2.39-.18-1.68-.53-2.4-.86-1.31-1.53-1.74-1.47-.66-2.41-.66-1.72,.22-2.38,.66c-.66,.44-1.15,1.02-1.49,1.74s-.51,1.52-.51,2.4,.17,1.66,.51,2.39,.83,1.32,1.49,1.76c.66,.44,1.45,.66,2.38,.66Z"/><path d="M692.36,61.42v-12.64h1.9v1.92c.29-.51,.74-.99,1.36-1.44,.62-.45,1.45-.68,2.48-.68,.84,0,1.62,.22,2.34,.67,.72,.45,1.28,1.07,1.68,1.88,.17-.29,.43-.63,.8-1.04,.36-.4,.84-.76,1.43-1.06,.59-.3,1.3-.46,2.12-.46s1.57,.21,2.27,.63c.71,.42,1.28,1.02,1.73,1.81s.67,1.71,.67,2.77v7.63h-1.9v-7.58c0-1.06-.3-1.92-.9-2.56-.6-.65-1.34-.97-2.24-.97s-1.73,.31-2.4,.94c-.68,.62-1.01,1.5-1.01,2.63v7.56h-1.9v-7.58c0-1.06-.3-1.92-.9-2.56-.6-.65-1.34-.97-2.24-.97s-1.73,.31-2.4,.94-1.01,1.5-1.01,2.63v7.56h-1.9Z"/><path d="M719.63,61.63c-1.23,0-2.3-.29-3.22-.87-.92-.58-1.63-1.37-2.14-2.36-.51-.99-.76-2.09-.76-3.29s.25-2.31,.76-3.3c.5-.99,1.22-1.77,2.14-2.35s1.99-.87,3.22-.87c1.05,0,1.94,.2,2.69,.61,.75,.4,1.36,.95,1.83,1.64v-2.05h1.9v12.64h-1.9v-2.02c-.47,.67-1.08,1.21-1.83,1.62-.75,.4-1.65,.61-2.69,.61Zm.25-1.72c.94,0,1.74-.22,2.39-.66,.65-.44,1.14-1.02,1.48-1.76,.34-.73,.5-1.53,.5-2.39s-.17-1.68-.5-2.4c-.34-.72-.83-1.31-1.48-1.74-.65-.44-1.45-.66-2.39-.66s-1.73,.22-2.4,.66c-.68,.44-1.19,1.02-1.54,1.74-.35,.72-.53,1.52-.53,2.4s.18,1.66,.53,2.39c.35,.73,.87,1.32,1.54,1.76,.67,.44,1.47,.66,2.4,.66Z"/><path d="M734.67,61.63c-1.23,0-2.3-.29-3.22-.87-.92-.58-1.63-1.37-2.14-2.36-.51-.99-.76-2.09-.76-3.29s.25-2.31,.76-3.3c.5-.99,1.22-1.77,2.14-2.35s1.99-.87,3.22-.87c1.05,0,1.94,.2,2.69,.61,.75,.4,1.36,.95,1.83,1.64v-2.05h1.9v12.64h-1.9v-2.02c-.47,.67-1.08,1.21-1.83,1.62-.75,.4-1.65,.61-2.69,.61Zm.25-1.72c.94,0,1.74-.22,2.39-.66,.65-.44,1.14-1.02,1.48-1.76,.34-.73,.5-1.53,.5-2.39s-.17-1.68-.5-2.4c-.34-.72-.83-1.31-1.48-1.74-.65-.44-1.45-.66-2.39-.66s-1.73,.22-2.4,.66c-.68,.44-1.19,1.02-1.54,1.74-.35,.72-.53,1.52-.53,2.4s.18,1.66,.53,2.39c.35,.73,.87,1.32,1.54,1.76,.67,.44,1.47,.66,2.4,.66Z"/><path d="M745.74,61.42v-10.97h-2.58v-1.67h2.58v-4.52h1.9v4.52h2.91v1.67h-2.91v10.97h-1.9Z"/></g><path d="M312.38,80.13c-6.47,0-11.82,.69-15.9,2.95-3.13,1.74-5.68,4.23-7.6,7.41v-10.41h-20.8v106.2h21.21V122.09c0-7.82,2-13.6,5.95-17.18,4.07-3.69,9.33-6.51,16.1-6.51h15.48v-18.28h-14.44Z"/><path d="M455.64,122.71l-13.94-.06c-.98-6.06-2.73-11.79-5.42-17.05-4.24-8.27-10.37-14.94-18.23-19.83-7.87-4.89-17.34-7.36-28.16-7.36s-20.13,2.48-28.06,7.36c-7.92,4.88-14.09,11.55-18.33,19.83-2.7,5.26-4.44,11-5.42,17.05h-12.51v19.03h12.18c.88,6.74,2.77,13.11,5.75,18.98,4.24,8.35,10.41,15.06,18.34,19.94,7.93,4.88,17.37,7.36,28.06,7.36s20.3-2.48,28.16-7.36c7.86-4.89,13.99-11.59,18.23-19.94,2.98-5.87,4.87-12.24,5.75-18.98l13.61,.06v-19.03Zm-94.62-7.79c2.5-5.38,6.24-9.76,11.12-13.01,4.85-3.23,10.82-4.87,17.74-4.87s13.04,1.64,17.82,4.86c4.81,3.26,8.53,7.64,11.04,13.02,1.13,2.45,1.98,5.04,2.61,7.73h-62.95c.63-2.7,1.48-5.29,2.61-7.73Zm57.72,36.43c-2.51,5.45-6.22,9.86-11.03,13.11-4.78,3.23-10.77,4.86-17.82,4.86s-12.9-1.64-17.74-4.87c-4.87-3.25-8.62-7.66-11.12-13.11-1.4-3.05-2.39-6.3-3.02-9.67h63.76c-.63,3.37-1.62,6.61-3.02,9.67Z"/><polygon points="95.98 122.77 139.53 80.09 111.28 80.09 65.8 126.88 65.8 39.5 45.75 39.5 45.75 186.4 65.8 186.4 65.8 152.92 82.12 136.78 116.72 186.4 141.34 186.4 95.98 122.77"/><path d="M247.85,133.24c0-10.08-2.14-19.37-6.35-27.59-4.24-8.27-10.37-14.95-18.23-19.83-7.87-4.89-17.34-7.37-28.16-7.37s-20.13,2.48-28.06,7.36c-7.92,4.88-14.09,11.55-18.34,19.83-4.21,8.22-6.35,17.5-6.35,27.59s2.25,19.23,6.67,27.52c4.45,8.33,10.79,15.03,18.84,19.91,8.06,4.87,17.56,7.35,28.24,7.35,12.52,0,22.95-3.07,30.99-9.11,7.97-5.99,13.87-13.82,17.54-23.28l1.28-3.29h-21.61l-.68,1.27c-2.51,4.63-6.06,8.47-10.57,11.41-4.45,2.9-10.08,4.38-16.74,4.38-6.31,0-11.93-1.36-16.68-4.05-4.75-2.69-8.59-6.37-11.41-10.93-2.38-3.87-4.05-8.12-4.98-12.66h84.6v-8.5Zm-84.29-10.53c1.67-6.89,4.95-12.8,9.8-17.58,5.47-5.4,12.58-8.03,21.75-8.03s16.31,2.63,21.85,8.04c4.9,4.79,8.16,10.69,9.73,17.57h-63.12Z"/><polygon points="500.19 80.09 500.19 43.76 480.13 43.76 480.13 80.09 459.43 80.09 459.43 98.32 480.13 98.32 480.13 186.4 500.19 186.4 500.19 98.32 523.53 98.32 523.53 80.09 500.19 80.09"/><path d="M633.77,133.24c0-10.08-2.14-19.37-6.35-27.59-4.24-8.27-10.37-14.94-18.23-19.83-7.87-4.89-17.35-7.37-28.17-7.37s-20.13,2.48-28.06,7.36c-7.93,4.88-14.1,11.55-18.34,19.83-4.21,8.22-6.35,17.5-6.35,27.59s2.25,19.23,6.68,27.52c4.44,8.32,10.78,15.02,18.84,19.91,8.06,4.87,17.56,7.35,28.24,7.35,12.52,0,22.95-3.07,30.99-9.11,7.97-6,13.87-13.83,17.54-23.28l1.28-3.29h-21.61l-.68,1.27c-2.51,4.63-6.06,8.47-10.57,11.41-4.45,2.9-10.08,4.38-16.74,4.38-6.31,0-11.92-1.36-16.67-4.05-4.76-2.69-8.6-6.37-11.41-10.93-2.38-3.87-4.05-8.11-4.98-12.66h84.6v-8.5Zm-84.28-10.53c1.66-6.89,4.95-12.79,9.8-17.58,5.39-5.33,12.7-8.03,21.74-8.03s16.31,2.63,21.85,8.04c4.89,4.79,8.16,10.69,9.73,17.57h-63.12Z"/><path d="M729.53,151.25c-2.51,5.44-6.21,9.84-11.01,13.08-4.77,3.22-10.75,4.85-17.78,4.85s-12.87-1.63-17.7-4.86c-4.86-3.24-8.6-7.64-11.09-13.08-2.54-5.52-3.83-11.62-3.83-18.13s1.29-12.77,3.82-18.22c2.5-5.37,6.23-9.74,11.1-12.98,4.84-3.23,10.8-4.86,17.7-4.86s13.02,1.63,17.78,4.85c4.8,3.25,8.51,7.62,11.01,12.99,.78,1.69,1.39,3.47,1.92,5.28h20.51c-1.03-5.15-2.61-10.05-4.93-14.59-4.23-8.25-10.35-14.91-18.19-19.78-7.85-4.88-17.3-7.35-28.1-7.35s-20.09,2.47-28,7.34c-7.9,4.87-14.06,11.53-18.29,19.79-4.2,8.21-6.34,17.47-6.34,27.53s2.13,19.15,6.34,27.42c4.23,8.33,10.39,15.03,18.3,19.9,7.91,4.87,17.33,7.34,28,7.34s20.25-2.47,28.1-7.35c7.84-4.88,13.96-11.57,18.19-19.89,2.61-5.14,4.34-10.69,5.33-16.51h-20.41c-.61,2.49-1.36,4.92-2.41,7.22Z"/><g><path d="M534.57,61.63c-1.28,0-2.4-.29-3.36-.87-.96-.58-1.71-1.37-2.24-2.36-.53-.99-.8-2.09-.8-3.29s.25-2.31,.76-3.3c.5-.99,1.23-1.77,2.17-2.35,.94-.58,2.06-.87,3.34-.87s2.41,.29,3.35,.87,1.65,1.36,2.16,2.35c.51,.98,.76,2.08,.76,3.3v.76h-10.59c.1,.74,.34,1.42,.72,2.03,.38,.62,.89,1.1,1.53,1.47,.64,.36,1.38,.54,2.22,.54,.89,0,1.64-.2,2.25-.59,.61-.39,1.08-.91,1.42-1.53h2.07c-.44,1.13-1.13,2.05-2.08,2.77-.95,.72-2.18,1.07-3.68,1.07Zm-4.42-7.53h8.59c-.17-1.08-.62-1.98-1.36-2.7s-1.72-1.09-2.93-1.09-2.19,.36-2.92,1.09-1.19,1.63-1.38,2.7Z"/><path d="M543.04,61.42v-17.69h1.9v17.69h-1.9Z"/><path d="M553.83,61.63c-1.28,0-2.4-.29-3.36-.87-.96-.58-1.71-1.37-2.24-2.36-.53-.99-.8-2.09-.8-3.29s.25-2.31,.76-3.3c.5-.99,1.23-1.77,2.17-2.35,.94-.58,2.06-.87,3.34-.87s2.41,.29,3.35,.87,1.65,1.36,2.16,2.35c.51,.98,.76,2.08,.76,3.3v.76h-10.59c.1,.74,.34,1.42,.72,2.03,.38,.62,.89,1.1,1.53,1.47,.64,.36,1.38,.54,2.22,.54,.89,0,1.64-.2,2.25-.59,.61-.39,1.08-.91,1.42-1.53h2.07c-.44,1.13-1.13,2.05-2.08,2.77-.95,.72-2.18,1.07-3.68,1.07Zm-4.42-7.53h8.59c-.17-1.08-.62-1.98-1.36-2.7s-1.72-1.09-2.93-1.09-2.19,.36-2.92,1.09-1.19,1.63-1.38,2.7Z"/><path d="M562.3,61.42v-17.69h1.9v11.32l6.09-6.27h2.65l-5.08,4.98,5.46,7.66h-2.33l-4.42-6.34-2.38,2.35v3.99h-1.9Z"/><path d="M576.35,61.42v-10.97h-2.58v-1.67h2.58v-4.52h1.9v4.52h2.91v1.67h-2.91v10.97h-1.9Z"/><path d="M583.23,61.42v-12.64h1.9v3.11c.07-.22,.2-.51,.39-.87,.19-.36,.48-.73,.85-1.1,.37-.37,.84-.69,1.4-.95,.57-.26,1.23-.39,2.01-.39h.13v1.9h-.23c-.94,0-1.76,.26-2.44,.77-.68,.51-1.2,1.18-1.57,2-.36,.82-.54,1.69-.54,2.62v5.56h-1.9Z"/><path d="M591.87,46.66v-2.48h2.05v2.48h-2.05Zm.08,14.76v-12.64h1.9v12.64h-1.9Z"/><path d="M602.56,61.63c-1.26,0-2.36-.29-3.29-.87-.93-.58-1.65-1.37-2.16-2.36-.51-.99-.77-2.09-.77-3.29s.26-2.31,.77-3.3c.51-.99,1.23-1.77,2.16-2.35s2.02-.87,3.29-.87c1.5,0,2.78,.39,3.83,1.16,1.05,.78,1.76,1.78,2.14,3.01h-2.05c-.29-.72-.75-1.31-1.38-1.77s-1.39-.68-2.29-.68-1.74,.22-2.43,.66-1.22,1.02-1.59,1.74c-.37,.72-.56,1.52-.56,2.4s.19,1.66,.56,2.39c.37,.73,.9,1.32,1.59,1.76s1.5,.66,2.43,.66,1.66-.23,2.29-.68c.63-.45,1.09-1.04,1.38-1.77h2.05c-.37,1.23-1.08,2.23-2.14,3.01s-2.33,1.16-3.83,1.16Z"/><path d="M610.8,46.66v-2.48h2.05v2.48h-2.05Zm.08,14.76v-12.64h1.9v12.64h-1.9Z"/><path d="M617.42,61.42v-10.97h-2.58v-1.67h2.58v-4.52h1.9v4.52h2.91v1.67h-2.91v10.97h-1.9Z"/><path d="M629.65,61.63c-1.28,0-2.4-.29-3.36-.87-.96-.58-1.71-1.37-2.24-2.36-.53-.99-.8-2.09-.8-3.29s.25-2.31,.76-3.3c.5-.99,1.23-1.77,2.17-2.35,.94-.58,2.06-.87,3.34-.87s2.41,.29,3.35,.87,1.65,1.36,2.16,2.35c.51,.98,.76,2.08,.76,3.3v.76h-10.59c.1,.74,.34,1.42,.72,2.03,.38,.62,.89,1.1,1.53,1.47,.64,.36,1.38,.54,2.22,.54,.89,0,1.64-.2,2.25-.59,.61-.39,1.08-.91,1.42-1.53h2.07c-.44,1.13-1.13,2.05-2.08,2.77-.95,.72-2.18,1.07-3.68,1.07Zm-4.42-7.53h8.59c-.17-1.08-.62-1.98-1.36-2.7s-1.72-1.09-2.93-1.09-2.19,.36-2.92,1.09-1.19,1.63-1.38,2.7Z"/><path d="M638.04,46.66v-2.48h2.05v2.48h-2.05Zm.08,14.76v-12.64h1.9v12.64h-1.9Z"/><path d="M644.67,61.42v-10.97h-2.58v-1.67h2.58v-4.52h1.9v4.52h2.91v1.67h-2.91v10.97h-1.9Z"/><path d="M662.41,61.63c-1.28,0-2.39-.29-3.34-.87-.94-.58-1.67-1.37-2.17-2.36-.51-.99-.76-2.09-.76-3.29s.25-2.31,.76-3.3c.5-.99,1.23-1.77,2.17-2.35,.94-.58,2.06-.87,3.34-.87s2.41,.29,3.35,.87,1.65,1.36,2.16,2.35c.51,.98,.76,2.08,.76,3.3s-.25,2.29-.76,3.29c-.51,.99-1.23,1.78-2.16,2.36-.94,.58-2.05,.87-3.35,.87Zm0-1.72c.94,0,1.74-.22,2.39-.66,.65-.44,1.14-1.02,1.48-1.76s.5-1.53,.5-2.39-.17-1.68-.5-2.4-.83-1.31-1.48-1.74c-.65-.44-1.45-.66-2.39-.66s-1.72,.22-2.38,.66c-.66,.44-1.15,1.02-1.49,1.74s-.51,1.52-.51,2.4,.17,1.66,.51,2.39,.83,1.32,1.49,1.76c.66,.44,1.45,.66,2.38,.66Z"/><path d="M671.18,66.43v-17.64h1.9v2.02c.47-.69,1.08-1.23,1.83-1.63,.75-.4,1.65-.59,2.69-.59,1.23,0,2.3,.29,3.22,.87s1.63,1.36,2.14,2.35c.5,.98,.76,2.08,.76,3.3s-.25,2.29-.76,3.29c-.51,.99-1.22,1.78-2.14,2.36-.92,.58-1.99,.87-3.22,.87-1.05,0-1.94-.21-2.69-.62-.75-.41-1.36-.96-1.83-1.63v7.05h-1.9Zm6.17-6.52c.94,0,1.75-.22,2.41-.66s1.17-1.02,1.53-1.76,.53-1.53,.53-2.39-.18-1.68-.53-2.4-.86-1.31-1.53-1.74-1.47-.66-2.41-.66-1.72,.22-2.38,.66c-.66,.44-1.15,1.02-1.49,1.74s-.51,1.52-.51,2.4,.17,1.66,.51,2.39,.83,1.32,1.49,1.76c.66,.44,1.45,.66,2.38,.66Z"/><path d="M692.36,61.42v-12.64h1.9v1.92c.29-.51,.74-.99,1.36-1.44,.62-.45,1.45-.68,2.48-.68,.84,0,1.62,.22,2.34,.67,.72,.45,1.28,1.07,1.68,1.88,.17-.29,.43-.63,.8-1.04,.36-.4,.84-.76,1.43-1.06,.59-.3,1.3-.46,2.12-.46s1.57,.21,2.27,.63c.71,.42,1.28,1.02,1.73,1.81s.67,1.71,.67,2.77v7.63h-1.9v-7.58c0-1.06-.3-1.92-.9-2.56-.6-.65-1.34-.97-2.24-.97s-1.73,.31-2.4,.94c-.68,.62-1.01,1.5-1.01,2.63v7.56h-1.9v-7.58c0-1.06-.3-1.92-.9-2.56-.6-.65-1.34-.97-2.24-.97s-1.73,.31-2.4,.94-1.01,1.5-1.01,2.63v7.56h-1.9Z"/><path d="M719.63,61.63c-1.23,0-2.3-.29-3.22-.87-.92-.58-1.63-1.37-2.14-2.36-.51-.99-.76-2.09-.76-3.29s.25-2.31,.76-3.3c.5-.99,1.22-1.77,2.14-2.35s1.99-.87,3.22-.87c1.05,0,1.94,.2,2.69,.61,.75,.4,1.36,.95,1.83,1.64v-2.05h1.9v12.64h-1.9v-2.02c-.47,.67-1.08,1.21-1.83,1.62-.75,.4-1.65,.61-2.69,.61Zm.25-1.72c.94,0,1.74-.22,2.39-.66,.65-.44,1.14-1.02,1.48-1.76,.34-.73,.5-1.53,.5-2.39s-.17-1.68-.5-2.4c-.34-.72-.83-1.31-1.48-1.74-.65-.44-1.45-.66-2.39-.66s-1.73,.22-2.4,.66c-.68,.44-1.19,1.02-1.54,1.74-.35,.72-.53,1.52-.53,2.4s.18,1.66,.53,2.39c.35,.73,.87,1.32,1.54,1.76,.67,.44,1.47,.66,2.4,.66Z"/><path d="M734.67,61.63c-1.23,0-2.3-.29-3.22-.87-.92-.58-1.63-1.37-2.14-2.36-.51-.99-.76-2.09-.76-3.29s.25-2.31,.76-3.3c.5-.99,1.22-1.77,2.14-2.35s1.99-.87,3.22-.87c1.05,0,1.94,.2,2.69,.61,.75,.4,1.36,.95,1.83,1.64v-2.05h1.9v12.64h-1.9v-2.02c-.47,.67-1.08,1.21-1.83,1.62-.75,.4-1.65,.61-2.69,.61Zm.25-1.72c.94,0,1.74-.22,2.39-.66,.65-.44,1.14-1.02,1.48-1.76,.34-.73,.5-1.53,.5-2.39s-.17-1.68-.5-2.4c-.34-.72-.83-1.31-1.48-1.74-.65-.44-1.45-.66-2.39-.66s-1.73,.22-2.4,.66c-.68,.44-1.19,1.02-1.54,1.74-.35,.72-.53,1.52-.53,2.4s.18,1.66,.53,2.39c.35,.73,.87,1.32,1.54,1.76,.67,.44,1.47,.66,2.4,.66Z"/><path d="M745.74,61.42v-10.97h-2.58v-1.67h2.58v-4.52h1.9v4.52h2.91v1.67h-2.91v10.97h-1.9Z"/></g><path d="M312.38,80.13c-6.47,0-11.82,.69-15.9,2.95-3.13,1.74-5.68,4.23-7.6,7.41v-10.41h-20.8v106.2h21.21V122.09c0-7.82,2-13.6,5.95-17.18,4.07-3.69,9.33-6.51,16.1-6.51h15.48v-18.28h-14.44Z"/><path d="M455.64,122.71l-13.94-.06c-.98-6.06-2.73-11.79-5.42-17.05-4.24-8.27-10.37-14.94-18.23-19.83-7.87-4.89-17.34-7.36-28.16-7.36s-20.13,2.48-28.06,7.36c-7.92,4.88-14.09,11.55-18.33,19.83-2.7,5.26-4.44,11-5.42,17.05h-12.51v19.03h12.18c.88,6.74,2.77,13.11,5.75,18.98,4.24,8.35,10.41,15.06,18.34,19.94,7.93,4.88,17.37,7.36,28.06,7.36s20.3-2.48,28.16-7.36c7.86-4.89,13.99-11.59,18.23-19.94,2.98-5.87,4.87-12.24,5.75-18.98l13.61,.06v-19.03Zm-94.62-7.79c2.5-5.38,6.24-9.76,11.12-13.01,4.85-3.23,10.82-4.87,17.74-4.87s13.04,1.64,17.82,4.86c4.81,3.26,8.53,7.64,11.04,13.02,1.13,2.45,1.98,5.04,2.61,7.73h-62.95c.63-2.7,1.48-5.29,2.61-7.73Zm57.72,36.43c-2.51,5.45-6.22,9.86-11.03,13.11-4.78,3.23-10.77,4.86-17.82,4.86s-12.9-1.64-17.74-4.87c-4.87-3.25-8.62-7.66-11.12-13.11-1.4-3.05-2.39-6.3-3.02-9.67h63.76c-.63,3.37-1.62,6.61-3.02,9.67Z"/><polygon points="95.98 122.77 139.53 80.09 111.28 80.09 65.8 126.88 65.8 39.5 45.75 39.5 45.75 186.4 65.8 186.4 65.8 152.92 82.12 136.78 116.72 186.4 141.34 186.4 95.98 122.77"/><path d="M247.85,133.24c0-10.08-2.14-19.37-6.35-27.59-4.24-8.27-10.37-14.95-18.23-19.83-7.87-4.89-17.34-7.37-28.16-7.37s-20.13,2.48-28.06,7.36c-7.92,4.88-14.09,11.55-18.34,19.83-4.21,8.22-6.35,17.5-6.35,27.59s2.25,19.23,6.67,27.52c4.45,8.33,10.79,15.03,18.84,19.91,8.06,4.87,17.56,7.35,28.24,7.35,12.52,0,22.95-3.07,30.99-9.11,7.97-5.99,13.87-13.82,17.54-23.28l1.28-3.29h-21.61l-.68,1.27c-2.51,4.63-6.06,8.47-10.57,11.41-4.45,2.9-10.08,4.38-16.74,4.38-6.31,0-11.93-1.36-16.68-4.05-4.75-2.69-8.59-6.37-11.41-10.93-2.38-3.87-4.05-8.12-4.98-12.66h84.6v-8.5Zm-84.29-10.53c1.67-6.89,4.95-12.8,9.8-17.58,5.47-5.4,12.58-8.03,21.75-8.03s16.31,2.63,21.85,8.04c4.9,4.79,8.16,10.69,9.73,17.57h-63.12Z"/><polygon points="500.19 80.09 500.19 43.76 480.13 43.76 480.13 80.09 459.43 80.09 459.43 98.32 480.13 98.32 480.13 186.4 500.19 186.4 500.19 98.32 523.53 98.32 523.53 80.09 500.19 80.09"/><path d="M633.77,133.24c0-10.08-2.14-19.37-6.35-27.59-4.24-8.27-10.37-14.94-18.23-19.83-7.87-4.89-17.35-7.37-28.17-7.37s-20.13,2.48-28.06,7.36c-7.93,4.88-14.1,11.55-18.34,19.83-4.21,8.22-6.35,17.5-6.35,27.59s2.25,19.23,6.68,27.52c4.44,8.32,10.78,15.02,18.84,19.91,8.06,4.87,17.56,7.35,28.24,7.35,12.52,0,22.95-3.07,30.99-9.11,7.97-6,13.87-13.83,17.54-23.28l1.28-3.29h-21.61l-.68,1.27c-2.51,4.63-6.06,8.47-10.57,11.41-4.45,2.9-10.08,4.38-16.74,4.38-6.31,0-11.92-1.36-16.67-4.05-4.76-2.69-8.6-6.37-11.41-10.93-2.38-3.87-4.05-8.11-4.98-12.66h84.6v-8.5Zm-84.28-10.53c1.66-6.89,4.95-12.79,9.8-17.58,5.39-5.33,12.7-8.03,21.74-8.03s16.31,2.63,21.85,8.04c4.89,4.79,8.16,10.69,9.73,17.57h-63.12Z"/><path d="M729.53,151.25c-2.51,5.44-6.21,9.84-11.01,13.08-4.77,3.22-10.75,4.85-17.78,4.85s-12.87-1.63-17.7-4.86c-4.86-3.24-8.6-7.64-11.09-13.08-2.54-5.52-3.83-11.62-3.83-18.13s1.29-12.77,3.82-18.22c2.5-5.37,6.23-9.74,11.1-12.98,4.84-3.23,10.8-4.86,17.7-4.86s13.02,1.63,17.78,4.85c4.8,3.25,8.51,7.62,11.01,12.99,.78,1.69,1.39,3.47,1.92,5.28h20.51c-1.03-5.15-2.61-10.05-4.93-14.59-4.23-8.25-10.35-14.91-18.19-19.78-7.85-4.88-17.3-7.35-28.1-7.35s-20.09,2.47-28,7.34c-7.9,4.87-14.06,11.53-18.29,19.79-4.2,8.21-6.34,17.47-6.34,27.53s2.13,19.15,6.34,27.42c4.23,8.33,10.39,15.03,18.3,19.9,7.91,4.87,17.33,7.34,28,7.34s20.25-2.47,28.1-7.35c7.84-4.88,13.96-11.57,18.19-19.89,2.61-5.14,4.34-10.69,5.33-16.51h-20.41c-.61,2.49-1.36,4.92-2.41,7.22Z"/></svg>