<svg width="429" height="52" viewBox="0 0 429 52" fill="none" xmlns="http://www.w3.org/2000/svg">
<path d="M428.211 14.3234L60.235 14.3234V15.9559L428.211 15.9559V14.3234Z" fill="black"/>
<path d="M133 15H132V33H133V15Z" fill="black"/>
<path d="M386 15H384V39H386V15Z" fill="black"/>
<path d="M148 33L117 33V45.078L148 45.078V33Z" fill="#8ab3a0" fill-opacity="0.3"/>
<path d="M399 39L368 39V51.078L399 51.078V39Z" fill="#006134"/>
<path d="M83.2587 4.99994L0 4.99994L0 24.5902L83.2587 24.5902V4.99994Z" fill="#006134"/>
<path d="M259.127 14.0082C259.127 21.7447 265.414 28.0164 273.169 28.0164C280.924 28.0164 287.211 21.7447 287.211 14.0082C287.211 6.27168 280.924 -2.74804e-07 273.169 -6.13793e-07C265.414 -9.52781e-07 259.127 6.27167 259.127 14.0082Z" fill="#8ab3a0"/>
</svg>
